<?xml version="1.0" encoding="UTF-8" standalone="no"?>
<svg
   viewBox="0 0 94.1 251.8"
   version="1.1"
   id="svg174"
   sodipodi:docname="arrow-interfon-orange.svg"
   inkscape:version="1.2.2 (b0a8486, 2022-12-01)"
   inkscape:export-filename="arrow-interfon-orange.png"
   inkscape:export-xdpi="96"
   inkscape:export-ydpi="96"
   width="94.099998"
   height="251.8"
   xmlns:inkscape="http://www.inkscape.org/namespaces/inkscape"
   xmlns:sodipodi="http://sodipodi.sourceforge.net/DTD/sodipodi-0.dtd"
   xmlns="http://www.w3.org/2000/svg"
   xmlns:svg="http://www.w3.org/2000/svg">
  <defs
     id="defs178" />
  <sodipodi:namedview
     id="namedview176"
     pagecolor="#ffffff"
     bordercolor="#000000"
     borderopacity="0.25"
     inkscape:showpageshadow="2"
     inkscape:pageopacity="0.0"
     inkscape:pagecheckerboard="0"
     inkscape:deskcolor="#d1d1d1"
     showgrid="false"
     inkscape:zoom="5.1330798"
     inkscape:cx="39.06037"
     inkscape:cy="172.41111"
     inkscape:window-width="1920"
     inkscape:window-height="1012"
     inkscape:window-x="0"
     inkscape:window-y="0"
     inkscape:window-maximized="1"
     inkscape:current-layer="svg174" />
  <path
     d="M 9.9,5.1 C 10.1,4.6 10.6,4.8 10.8,3.8 11,3 9.8,0 10.6,0 c 2.6,0.1 7.2,1.1 10.7,0.7 0.4,0 0.9,-0.5 1.3,-0.6 0.8,-0.2 2,0.3 3.6,0.4 3.8,0.2 7.9,0.1 12.2,0.2 4.3,0.1 7.3,0.3 11.1,0.4 0.8,0 1.6,0.3 2.3,0.2 0.4,-0.1 1.2,-0.8 1.3,-0.8 0.9,0 1.3,1.1 2.1,1.1 1.5,0.1 2.2,-2.1 3.4,-1.3 0.6,0.4 -0.1,0.5 0.2,1.5 0.3,0.9 0.9,0.9 0.9,1.5 0,0.5 -0.6,2.1 -0.9,3.2 -0.2,0.7 -0.7,1.5 -0.7,1.5 0,0.6 1.2,1.1 0.4,1.9 C 57.9,10.5 50.6,9.6 49.1,9.5 43.2,9.4 37.6,9.4 31.3,9 26.8,8.7 22.3,9.7 18.9,9.4 17.8,9.3 15.3,9.2 13.8,9.2 c -0.4,0 -1.6,0.8 -2.4,0 -1,-0.9 0,-4.1 -1.5,-4.1 z m 12.4,2 C 22.6,5.6 21.3,5.8 20.2,5 18.9,4.1 17.5,2.5 15.9,2.4 17.1,5.2 20.3,5 22.3,7.1 Z M 27.2,6.4 C 26.4,6.5 26.3,5.7 25.5,5.3 25.3,5.2 24.7,5.3 24.4,5.1 22.3,4 21.2,1.6 19.7,2.8 c 0.1,0.7 1.1,0.4 1.5,0.8 0.2,0.1 0.1,0.8 0.2,0.9 1,0.9 3.6,0.5 3.4,2.6 C 26.3,6.9 28.5,7 29.9,6.7 28.9,5.3 28.1,6.3 27.2,6.4 Z M 34.7,2.6 C 35,3.3 35.9,3.4 36.6,3.7 37.5,2.6 35.4,2.3 34.7,2.6 Z m 0.4,4.9 c -2.2,-2 -5.4,-4 -8.3,-4.7 2.9,1.5 4.9,4.3 8.3,4.7 z m 10,0.6 H 47 C 46.2,7.1 44.8,5.6 43.4,4.7 43.1,4.5 42.5,4.7 42.1,4.5 41.7,4.3 41.6,3.1 41.3,3 40.4,2.5 38.9,3.1 38.1,3 c 1.9,1.5 7.3,2.6 7,5.1 z M 14,5.8 c 0.6,0.6 0.2,1.1 0.6,1.3 0.5,0.3 1.4,0 2.3,0.2 C 15.9,6 14.7,5 12.9,4.5 12.4,5.9 13.5,5.4 14,5.8 Z M 38.5,7.5 C 39.9,7.6 41.1,8 42.8,7.9 42.2,6.8 41,6.3 39.8,5.8 40,7 38.8,6.9 38.5,7.5 Z M 36,7.5 C 36.7,7.4 37.7,7.7 38.1,7.3 37.5,5.7 36.7,6.6 36,7.5 Z M 49.4,7.1 c 0.2,0.5 -0.3,0.5 -0.2,0.9 1.4,0.5 3,-0.2 4.3,0.2 C 53.5,7.2 52.7,7 52.2,6.5 52,8.8 50.6,7.6 49.4,7.1 Z M 10.8,19.4 c -1,-1 -0.1,-1.3 0.2,-2.4 0.3,-1.2 -0.4,-1.9 0,-2.4 0.1,-0.2 3.2,-1.1 3.4,-1.1 3.4,-0.2 9.9,1.5 14.7,1.5 1.1,0 3.3,-0.4 4.3,-0.4 8.9,-0.2 16.8,0.3 24.1,0 1.7,-0.1 2.9,-0.8 2.8,1.3 0,0.3 -0.6,0.9 -0.8,1.7 -0.1,0.6 0.1,1.3 0,1.9 -0.1,0.5 -0.5,0.9 -0.6,1.5 -0.2,2.1 0.2,4.9 -0.9,5.6 -0.3,0.2 -1.1,-0.1 -1.7,0 -0.6,0.1 -1,0.8 -1.5,0.9 -1,0.2 -2.6,-0.3 -3.8,0 -0.6,0.2 -0.9,0.8 -1.3,0.8 -0.6,0 -1.2,-0.9 -1.9,-0.9 -0.8,-0.1 -1.5,0.8 -2.3,0.8 -0.6,-0.1 -1.1,-0.9 -1.9,-1.1 -3.9,-1 -9.7,0.3 -14.9,-0.2 C 25.6,26.6 22.9,26 20.4,26 17.5,25.9 12.8,26.9 11.5,25.4 11,24.7 11.5,22.9 10.9,21.8 10.7,20.7 8.2,19.5 10.8,19.4 Z M 27,20.3 c -0.5,-0.4 -0.6,-1.1 -1.1,-1.5 -0.3,-0.3 -1.1,-0.2 -1.5,-0.6 -0.9,-0.8 -0.5,-0.6 -1.7,-1.1 -0.9,-0.4 -1.7,-1.9 -2.4,-0.9 3.7,2 6.1,5.3 10.2,7 -0.6,-1.4 -2.4,-1.8 -3.5,-2.9 z m 19.2,-1.1 c -0.4,-0.4 -0.6,-1.4 -1.1,-1.7 -0.3,-0.2 -1,0.1 -1.5,0 -0.6,-0.2 -0.9,-1.5 -1,-1.5 -2,-0.9 -4.3,0.2 -6.2,0.4 1.2,0.6 2,2.2 3.2,3.2 0.2,0.2 0.7,0 0.9,0.2 1,0.7 2.2,2.1 3.4,3 0.5,0.3 1.4,0.7 2.1,1.1 1.7,1.1 2.3,1.7 4.3,0.9 -3.5,-2.7 -7.7,-4.7 -10.9,-7.7 1.2,-0.1 3.3,0.6 4.3,1.3 0.4,0.3 0.7,1 1.1,1.3 1.2,1 3.4,1.5 5.1,2.6 1.3,0.9 2.1,3.2 3.6,2.3 -1.6,-1.7 -5.2,-3.2 -7.3,-5.4 z M 44.1,16 c -0.2,0.9 1.3,0.5 1.9,0.9 0.7,0.5 1.1,1.7 1.9,2.3 1.2,0.9 3.7,2.7 4.9,3.4 1.4,0.8 3,0.6 2.3,2.1 0.8,-0.5 1.9,0.1 2.3,-0.4 0.4,-0.4 0.7,-2.6 0.4,-3.6 0,0 -1.2,-1.1 -1.5,-1.3 -0.9,-0.8 -2.2,-1.5 -2.4,-1.5 0.5,1 1,2.5 1.9,3.4 0.4,0.4 3,2.3 0.6,2.3 -1,0 -2.3,-2.6 -4.1,-3.8 -1,-0.6 -1.9,-1.2 -2.6,-1.7 -0.7,2.4 -2.3,-1 -1.7,-2.1 -1.2,-0.4 -2.5,0.2 -3.9,0 z m 8.7,2.4 C 52.6,17.6 51.9,16.9 52.4,16 h -3.2 c 1.1,0.9 1.9,2.1 3.6,2.4 z m -20.7,-2 c 3.8,3 7.8,6.8 12.4,8.3 -1.8,-2.2 -5.1,-3 -6.4,-5.8 -0.6,-0.1 -0.6,0.3 -1.1,0.2 -1.2,-1.6 -2.8,-3.2 -4.9,-2.7 z m -0.9,4.9 c 1.4,0.8 3.1,3.1 4.9,2.4 -1.2,-0.8 -2.8,-2.2 -4.5,-3 -0.8,-0.4 -1.5,-1.5 -2.3,-2.1 -1.2,-0.9 -2.4,-0.9 -2.1,-2.3 -0.8,0.1 -2,-0.2 -2.4,0.2 2.2,1.2 4.2,3.5 6.4,4.8 z M 20,23.2 c -2.1,-2 -4.2,-5 -7.2,-5.5 2.6,1.7 4.1,4.4 7.2,5.5 z m 16.4,-1.4 c -1.2,-1.9 -3.5,-3.3 -5.7,-3.9 2.2,0.9 3.7,3.5 5.7,3.9 z m -20.9,0.8 c -0.6,-1.2 -1.4,-2.1 -2.8,-2.4 0.8,0.9 1.8,1.7 2.8,2.4 z m 38.7,24.2 c 1.3,0.9 6.1,0.1 5.8,2.1 -0.2,1.3 -3.8,0.3 -5.1,0 -1.4,-0.3 0,-0.3 -1.5,-0.6 C 50.5,47.8 46.3,48.6 43.2,48.1 42.6,48 41.8,47.7 41.3,47.7 38.9,47.9 37.2,47.6 33.6,47.5 28,47.4 21.1,46.2 15.9,46.2 c -0.6,0 -3.9,0 -4.1,-0.2 -0.3,-0.2 -1.3,-2.4 -1.3,-2.4 0,-0.8 1,-1 1.1,-1.3 0.2,-0.7 -0.2,-2 -0.2,-2.6 0,-0.6 0.4,-1.5 0.4,-2.4 0,-1.5 -1.5,-6.6 0,-6 3.2,1.2 8.2,0.5 12.2,0.6 5.2,0.1 10.6,-0.8 17.3,-0.6 4.1,0.1 9.8,0.6 13.6,0.9 0.9,0.1 2.5,0.1 2.8,0 0.7,-0.2 1.7,-1.8 2.6,-0.2 0.3,0.6 -0.3,2.1 0,3.4 0.1,0.4 0.6,0.8 0.6,0.9 0,0.4 -0.4,0.5 -0.6,1.1 -0.2,1.2 0.2,2.9 0.2,4.5 0,1.3 -0.2,4.2 -0.2,4.1 -0.5,0.7 -0.8,-0.1 -2.1,0.2 -0.4,0.1 -0.7,0.7 -0.9,0.8 -0.9,0.2 -2.2,-0.5 -3.1,-0.2 z M 35.9,33.1 c 3.2,3.7 8.2,4.8 12.1,7.7 0.2,0.1 0.2,0.6 0.4,0.8 0.6,0.4 1.3,0.4 1.9,0.8 1.4,1 3,2.9 5.3,2.6 C 55,43.7 53,43.3 51.6,42.2 51.4,42 51.3,41.4 51,41.3 50.6,41 50,41.2 49.7,40.9 49.6,40.8 49.6,40.2 49.5,40.1 49.2,39.9 48.7,40.1 48.4,39.9 47.1,39.2 45.5,37.7 44.3,36.7 43.8,36.3 43.1,35.8 42.8,35.6 41.6,34.9 38.1,34.5 39,33 c -1.3,-0.2 -2,0.2 -3.1,0.1 z m 10.2,3.6 c 2.9,1.9 5.4,3.5 8.3,5.3 -0.1,-1.4 -2.2,-1.7 -3,-2.6 -0.7,-0.9 -0.3,-0.5 -1.5,-0.9 -1.2,-0.4 -1.9,-1.7 -3,-2.4 -1.7,-1.1 -3.3,-1.5 -3.8,-2.1 0.1,0.2 -0.2,-1 -0.2,-0.9 -0.9,-0.4 -2.3,0.3 -3,0 2,1.3 4.2,2.3 6.2,3.6 z M 54,39.1 C 51.4,37.8 49.9,34.4 47,34 46.7,33.8 46.9,33.1 46.6,32.9 46.2,33.3 44.9,32.8 44.5,33.3 48,34.8 50.8,38 54,39.1 Z M 30.6,33.5 c 1.1,0.7 2,0.9 3.2,1.5 1.6,0.8 3.5,2 5.1,3 1.4,0.9 2.7,2.4 4,3 0.6,0.3 1.7,0.1 2.3,0.6 0.3,0.3 0.4,1.1 0.8,1.5 0.4,0.4 0.3,-0.2 0.8,0 0.7,0.4 2.3,2.5 3.6,1.3 -1.9,-0.6 -3.7,-3 -5.5,-3.9 -1.5,-0.8 -2.5,-1.6 -4.1,-2.4 -1.8,-0.9 -7.9,-2.8 -5.7,-4.9 -1.7,0.3 -3.2,-0.4 -4.5,0.3 z m 27.3,6.8 c -0.3,-1.6 -1.8,-2.8 -2.8,-3.8 -1.1,-1 -3.2,-1.4 -4.1,-2.3 -0.7,-0.6 -1.1,-1.9 -2.6,-0.9 3.5,1.9 5.9,5 9.5,7 z M 14.4,33.9 c 0.5,0 1.1,0.7 1.5,0.8 0.4,0 0.9,-0.6 1.3,-0.6 0.6,0.1 0.8,0.9 1.5,1.3 1,0.7 2.5,1 3.2,1.5 0.4,0.3 0.4,0.8 0.8,1.1 1.5,1.4 4.8,2.7 6.4,4.1 0.7,0.6 0.5,0.6 1.3,0.9 1.4,0.6 1.7,2.3 3.4,1.3 -1.5,-0.8 -3.1,-2.1 -4.7,-3 -0.3,-0.2 -0.4,-0.7 -0.8,-0.9 -2.1,-1.5 -5.3,-3.9 -6.4,-4.1 -0.2,0 -0.8,0.4 -0.9,0.2 -1.2,-1.3 0.4,-3.2 1.9,-1.9 0,-1.7 -5.3,-0.8 -7.5,-0.9 -1.2,-0.1 -2.4,-0.8 -2.3,0.8 0.7,0.2 0.5,-0.6 1.3,-0.6 z M 30,33.3 c -1,0.4 -1.8,0 -2.6,0 0.7,1 2.5,2 2.6,0 z m -3.7,1.9 c 1.6,0.8 2.9,2.7 4.7,2.4 -0.3,-0.8 -1,-0.6 -1.7,-0.9 -0.2,-0.1 -0.5,-0.7 -0.9,-0.9 -1.6,-1 -2.9,-1.6 -4.7,-2.3 0.1,1.4 1.6,1.2 2.6,1.7 z m 32,2 c 0.2,-1.5 -0.9,-1.8 -1.7,-2.3 -0.5,1.4 0.8,1.9 1.7,2.3 z M 16.5,38 c 1.1,0.7 2.1,2.1 3.2,2.8 0.4,0.2 1,0.3 1.5,0.6 2.2,1.3 3.2,3.7 5.5,2.6 -4.4,-2.9 -8.2,-6.4 -13.2,-8.6 -0.4,2.2 1.5,1.7 3,2.6 z m 18.4,0.8 c 0.8,0.5 1.8,0.9 2.6,1.5 2,1.4 4.3,5.1 7.2,3.9 -1.6,-0.7 -2.6,-2.6 -4.1,-3.6 -0.4,-0.2 -0.9,0 -1.3,-0.2 C 36.4,39.3 34,35.9 31,36 c 1.5,1 2.5,1.8 3.9,2.8 z m 1.4,5.1 c 0.3,-0.1 0,-0.9 0.4,-0.9 0.9,0.5 1.6,2 2.8,1.7 -0.2,-1.3 -2.4,-2.2 -3.4,-3 -0.2,-0.2 -0.4,-0.8 -0.6,-0.9 -0.8,-0.5 -1.4,0 -2.1,0 -2.1,0 -3.7,-2.3 -5.7,-2.8 2,2.7 5.8,3.8 8.6,5.9 z m 15.2,9.2 c 0.3,0 4,0.2 5.8,0.2 1,0 2.1,-0.5 2.4,-0.2 0.7,0.5 0.6,7.5 0.6,8.7 0,2.5 -1,6 -1.3,8.3 -0.1,1.2 -0.4,2.9 -0.2,3.6 0.2,0.6 1.2,0.7 1.3,1.1 0.1,0.3 -0.4,2.2 -0.8,2.5 -0.5,0.4 -1.8,-0.4 -2.8,-0.6 -1.3,-0.2 -3.2,-0.3 -4.9,-0.4 -3.9,-0.2 -8.5,-0.6 -11.3,-0.6 -0.7,0 -1.5,0.4 -2.1,0.4 -0.4,0 -0.8,-0.5 -1.3,-0.6 -1.4,-0.3 -3.6,-0.3 -4.9,-0.4 -3.1,-0.1 -6.8,0.4 -10,0.4 -2,0 -6.6,0.5 -7.7,0 -0.5,-0.2 -2.4,-2.1 -2.6,-2.8 -0.7,-1.8 0.1,-6.2 0.2,-10 0,-3.2 -0.9,-5.9 0,-8.3 0.7,-1.8 4.1,-1.1 6.6,-1.1 4.5,-0.1 9.8,0.7 14.5,0.5 1.5,0 2.9,-0.4 4.1,-0.4 1,0 1.7,0.4 2.8,0.4 3.8,0 7.7,-0.7 11.6,-0.7 z m -11.6,2.4 c 0.1,0.9 0.8,1.2 1.5,1.5 0,-1.5 1.7,-0.3 2.1,0 -0.3,-2.3 1.9,-0.7 2.8,0 -1.2,-1.9 0.5,-1.5 1.7,-0.6 0.5,-3 3.1,0.4 4.3,0.7 0.1,-3.6 3.9,2.1 5.5,2.1 C 57.1,57 54.2,57 53.7,54.7 47.9,54.6 44.8,55.3 39.9,55.5 Z m -17,3.3 c -0.3,-0.3 -0.9,-0.2 -1.3,-0.6 -1.3,-1 -2.7,-3.3 -4,-2.8 1.1,2.1 4.5,4 6.8,6 2.5,2.2 4.8,4.5 7.2,6.4 -0.8,-2.9 -4.8,-3.6 -5.5,-6.2 -0.1,-0.4 0.9,-0.9 -0.2,-1.1 -0.4,0.5 0.3,0.9 -0.2,1.3 -1.1,-0.7 -1.9,-2.3 -2.8,-3 z m 6.4,-0.2 c -0.8,-0.7 -2.7,-2.6 -3.6,-3 -1.1,-0.5 -2.4,-0.2 -3.6,-0.2 0.2,1.7 1.8,0.6 2.3,0.8 0.7,0.2 0.9,1.1 1.5,1.5 0.3,0.2 0.6,0 0.9,0.2 1.1,0.6 2,2.1 3,2.8 4.2,2.8 8.3,5.7 12.1,8.1 C 38.5,65.1 33.3,62 29.3,58.6 Z m 1.1,-1 c 0.7,0.5 1,1.4 1.7,1.9 1.2,0.9 2.6,1.5 3.8,2.4 1.1,0.9 2.2,2 3.4,2.8 3.2,2.3 6.7,4.5 9.4,7 0.8,0.7 1,2.3 2.6,1.9 -2.6,-2.9 -6.2,-6.3 -9.6,-8.8 -1,-0.7 -2.2,-1.1 -3.2,-1.9 -1.9,-1.6 -3.4,-3.8 -5.3,-5.3 -0.5,-0.4 -1.3,-0.4 -1.7,-0.7 -0.3,-0.2 -0.3,-0.8 -0.6,-0.9 -1,-0.7 -2.4,0 -3.4,-0.6 0.6,1.4 1.9,1.6 2.9,2.2 z m 8.7,3 c 0.2,0.2 0.5,-0.3 0.8,-0.2 0.3,0.1 0,0.4 0.4,0.8 0.8,0.7 2.4,1.6 4,2.6 3.6,2.6 7.8,5.7 10.7,8.3 0.4,0.4 0.9,1.3 1.1,1.3 0.1,0 1.5,-0.2 1.7,-0.6 0.9,-2 -2.3,-0.8 -3,-1.5 -3,-2.9 -7.1,-6.5 -10.9,-10.3 -1.5,-1.5 -3.5,-2.8 -4.9,-4.1 0,0 -0.9,-1.4 -1.1,-1.5 -0.7,-0.2 -5.5,0.1 -5.6,0.4 -0.5,1 2,1.5 2.5,2.1 0.4,-1.5 1.5,0.2 1.9,0.9 -0.6,0 -1.4,-1 -1.7,-0.2 0.8,0.3 1.1,1.1 2.3,0.9 0,-0.6 -0.8,-0.7 0,-0.9 0.8,0.1 1.4,1.7 1.8,2 z m 11.3,2.1 c -2,-2 -4,-4 -6.6,-5.5 1.9,2.1 4.3,4.5 6.6,5.5 z M 53.2,61 c 1,0.8 3,1.8 3.6,1.7 -3.2,-1.3 -4.1,-5 -8.1,-5.5 1.7,0.8 3,2.6 4.5,3.8 z m -38.4,4.4 c -1,-0.8 0.3,-1.4 0.4,-2.3 0.1,-0.9 -0.9,-2.1 0.4,-2.8 -0.8,-0.3 -1,-1.2 -1.7,-1.5 0,1.8 -0.8,5.8 0.9,6.6 z m 43.9,-2.5 c -0.2,-1.7 -3.1,-3.3 -4.3,-4 1.2,1.6 3,2.5 4.3,4 z m -0.4,3.9 c -0.1,-0.5 0.5,-1.3 0,-1.7 -2.6,0.6 -4.8,-3.4 -7,-3.8 2.3,2 4.6,3.8 7,5.5 z M 23.1,65.2 c -1.7,-1.1 -2.8,-2.8 -4.7,-3.8 1.1,1.6 3.1,3.3 4.7,3.8 z m 31.8,3.9 c -1.8,-2.2 -4.4,-4.6 -6.8,-5.6 2.5,1.7 4.4,3.8 6.8,5.6 z M 33.5,67.2 c 0.8,0.7 0.8,1.8 1.5,2.6 0.3,0.4 1.3,0.7 1.9,1.3 1,1 1.3,1.6 3,1.7 -2.8,-2.8 -5.7,-5.6 -9,-7.9 0.4,1.4 1.8,1.6 2.6,2.3 z m -5.7,4.9 c -2.2,-2.7 -4.8,-5 -7.9,-6.8 2.4,2.6 4.9,5 7.9,6.8 z M 58,69.3 c 0.1,-0.4 0.5,-1.4 0,-1.7 -1.4,1.8 -2.4,-2 -3.8,-1.5 1.3,1 2.3,2.3 3.8,3.2 z M 22.2,72.1 C 20.4,70 17.8,68.6 15,67.4 c 2,2 3.1,4.9 7.2,4.7 z M 34,72.3 c -0.6,-1.7 -2.4,-2.3 -3.6,-3.4 0.9,1.4 2.2,3.3 3.6,3.4 z m 14,1.3 c -1.4,-1.9 -3.6,-3.9 -5.7,-4.5 2.2,1.2 3.5,3.3 5.7,4.5 z m -6.6,-0.7 c 0.9,0.2 2,0.2 3,0.4 -1.2,-1.8 -3,-3 -5.1,-3.9 0.7,1.1 3.3,1.4 2.1,3.5 z m -24.7,0.4 c 0.2,-1.8 -1.6,-1.5 -2.6,-2.1 -0.5,1.8 1,1.9 2.6,2.1 z m 1.7,8.4 c -0.5,-1.4 -2,-0.9 -2.1,-1.9 -0.1,-0.9 0.8,-1.5 1.1,-1.3 1.2,0.6 3.3,2.9 4.3,3.2 1,0.3 2.3,-0.1 3.4,-0.2 6.8,-0.3 15,-0.1 23,-0.8 2.7,-0.2 5.8,0.1 7.3,-0.2 0.5,-0.1 1.2,-0.7 1.7,-0.8 0.2,0 0.6,0.6 0.9,0.7 1.2,0.3 1.5,-0.2 2.1,0.2 -0.2,-0.2 0.9,1.4 0.9,2.3 0,0.8 -0.9,2 -0.6,3.4 0.1,0.5 0.6,0.8 0.6,1.3 0,0.6 -0.5,1.1 -0.6,1.7 -0.5,2.8 0.1,7.7 -0.2,11.1 -0.2,1.7 -0.9,4.2 -0.6,5.3 0.2,0.6 1.1,0.8 1.1,1.3 0.1,1.3 -0.7,0.5 -0.9,1.5 -0.1,0.5 1,1.8 0,2.8 -0.9,0.9 -1.9,-0.1 -3,-0.2 -0.2,0 -2.7,0 -3.4,0.2 -0.5,0.1 -1,0.8 -1.5,0.8 -0.9,0 -1.2,-1 -2.1,-1.3 -1.4,-0.5 -8.3,-0.3 -10.9,-0.6 -4.8,-0.4 -11.7,-0.5 -16.2,-0.2 -1.9,0.1 -3.7,-0.1 -5.1,0 -0.6,0 -2.8,1.1 -3.6,0 -0.2,-0.3 0.2,-1.3 0.2,-1.9 -0.1,-2.2 -1.1,-5.2 -1.3,-8.5 -0.3,-4.2 -1.3,-7.7 -1.3,-11.1 0,-2.2 0.7,-7.9 1.7,-8.3 1.3,-0.1 3.2,2.4 5.1,1.5 z m 20.9,18.8 c 2.5,1.7 4.7,4 7.5,4.9 C 44.9,103.6 43.3,101 41,99.2 40.5,98.8 39.8,98.7 39.3,98.3 39,98.1 39,97.4 38.7,97.2 38.1,96.6 37.1,96 36.2,95.3 33.6,93 30.8,90.7 28.3,88.7 c -2.2,-1.7 -4,-4 -7.3,-3 6.4,4.6 11.9,10.3 18.3,14.8 z M 31.4,88.7 c 0.4,0.3 0.6,1 0.9,1.3 3.8,3.7 8.5,6.7 12.6,10.2 C 44.7,98.5 42.7,97.9 41.7,96.8 41.6,96.7 41.5,96 41.3,95.9 41,95.6 40.4,95.8 40,95.5 39.3,95.1 38.7,94.1 38.1,93.4 37.5,92.7 37,91.7 36.4,91.1 36.3,91 35.7,91.1 35.5,90.9 35,90.6 34.7,89.8 34.2,89.4 33.1,88.5 31.5,87.9 30.4,87 c -0.8,-0.7 -1.1,-1.9 -2.8,-1.5 0.6,1.8 2.5,2.1 3.8,3.2 z m 6.6,1.5 c -1.5,-1.9 -3.3,-3.5 -5.7,-4.5 1.5,2 3.9,2.9 5.7,4.5 z M 18.2,89.6 c 4,2.6 9.1,7.3 13,9.4 -0.6,-0.5 -1.5,-0.8 -1.5,-1.9 -1.4,0.7 -1.3,-0.8 -1.9,-1.5 -0.3,-0.3 -1.3,-1.2 -1.7,-1.5 0.1,0.1 -0.4,0.3 -0.6,0.2 -0.9,-0.6 -1,-2 -1.5,-2.4 -0.2,-0.2 -0.5,0.3 -0.8,0.2 -0.9,-0.3 -1.2,-1.7 -1.9,-2.3 -1.6,-1.3 -3.7,-2 -4.7,-3.6 -0.4,1 -1.3,1.4 -1.3,2.6 1.5,-0.9 2.1,0.3 2.9,0.8 z m 31.1,0.6 c 0.3,0.4 0,0.8 0.4,1.1 0.6,0.5 1.4,0.5 2.1,0.9 1.2,0.8 1.6,2.8 3.2,2.8 -2.7,-3.1 -5.7,-5.8 -9,-8.3 0.2,2.2 2.5,2.1 3.3,3.5 z m 9.6,1.3 V 89.4 C 56.7,89.6 57,87.3 55.3,87 c 0.8,1.9 2,3.4 3.6,4.5 z m -11.8,0 c -1.2,-1.9 -3.2,-2.9 -5.1,-4.1 1.4,1.6 3.3,2.8 5.1,4.1 z M 55,91.1 c -0.3,-1.6 -1.6,-2.2 -2.8,-2.8 0.8,1 1.3,2.4 2.8,2.8 z m -8.9,2.7 C 46,92.2 44.5,92.2 43.6,91.2 42.7,90.1 41,88.4 39.8,88.9 c 2.3,1.2 4.9,4.1 6.3,4.9 z M 18.4,93.6 c 1.1,0.9 2.2,1.5 2.8,2.1 -1.6,-2 -3.2,-3.9 -5.3,-5.5 -0.5,1.5 1.4,2.5 2.5,3.4 z m 22.1,-1.2 c -0.2,-1.6 -1.1,-1.4 -2.3,-2.1 0.6,0.9 1.3,1.6 2.3,2.1 z m 10.7,2.7 c 1.4,1.1 1.8,3 3.4,4 0.2,-2.8 -3.1,-3.7 -4.9,-5.3 -0.1,1 1,0.9 1.5,1.3 z m -32.6,1.3 c -1,-0.7 -1.7,-1.7 -2.8,-2.3 v 2.6 C 16,95.8 18,96.3 18.6,96.4 Z m 11.7,6.4 c 0.6,0.1 0.2,-0.8 0.9,-0.6 1.6,1.3 2,3.8 5.1,3.6 -4.1,-4 -8.9,-7.3 -13.6,-10.7 2.1,3.1 6.2,4 7.6,7.7 z m 16.4,-1.3 c 0.3,-0.3 -0.9,-1.6 -0.4,-2.1 1.2,1.3 3,2.9 4.3,4 0.6,0.5 1.1,1.5 1.5,1.9 0.4,0.4 1.5,0.2 1.7,0.6 0.3,0.4 -0.3,1.1 0.2,1.3 1.1,0.7 5.8,0.4 4.1,-1.9 -1.9,2.8 -3.1,0.7 -5.1,-1.1 -2.7,-2.4 -6,-5 -8.7,-6.4 1.6,0.8 1.1,3 2.4,3.7 z m -26,0.6 c 0,-0.9 -0.9,-0.5 -1.3,-0.7 -1.3,-0.9 -1.8,-3.1 -3.6,-3.6 -0.1,3 3.6,3.3 4.9,4.3 z m 37.1,0.9 c -0.4,-1.3 1,-0.7 0.9,-1.7 -1.9,-1.6 -2.5,1.2 -0.9,1.7 z m -30.3,2.6 c 0.2,-1 -0.8,-0.8 -1.3,-1.1 -1.3,-1 -2.4,-2.7 -4,-2.6 1.7,1.3 3,3 5.3,3.7 z m -8.3,-1.1 c -1.3,-0.6 -1.8,-2 -3.2,-2.4 0.2,0.9 -0.6,1.9 0,2.6 0.6,-2.1 2.2,-0.1 3.2,-0.2 z m 21.1,1.5 c -0.5,-1.5 -2.1,-1.8 -3,-2.8 1.2,1.1 1.1,2.7 3,2.8 z m -19.2,2.5 c -0.7,-1 -1.6,-0.7 -2.4,-0.8 -2.1,-0.2 -1.4,-1.9 -2.6,-2.4 -0.3,4.3 1.7,4.1 5,3.2 z m -19.8,5.1 c 1.2,-0.3 0.7,0.8 1.9,1.3 0.4,0.2 4.1,0.5 4.7,0.4 0.7,-0.2 1.1,-1 1.7,-1.1 0.8,-0.1 3.1,0.8 4,0.7 3.3,-0.2 7.5,0.2 10.5,0.2 8.7,0.1 19.5,-0.6 27.3,-0.8 5.6,-0.1 9.2,-0.6 15.3,-1 3,-0.2 6,0.8 8.5,0.6 1.5,-0.1 3.3,-1.4 2.8,1.7 -0.2,1 -1,1.5 -1.9,2.3 -0.8,0.7 -1.4,0.7 -2.3,1.3 -0.5,0.4 -0.8,1.3 -1.5,2.1 -1,1 -2,1.7 -3,2.8 -1.2,1.3 -1.9,3 -3.2,4.5 -0.8,0.9 -2,1.5 -3,2.8 -0.3,0.4 -0.4,0.9 -0.8,1.3 -1.7,2.1 -3.8,4.4 -5.5,6.8 -0.9,1.3 -1.8,1.9 -2.6,3 -0.7,0.9 -0.9,2.4 -1.7,3.2 -0.4,0.4 -1,0.4 -1.3,0.8 -0.4,0.4 -0.5,1.3 -0.9,1.9 -0.4,0.5 -1.1,0.8 -1.5,1.3 -0.6,0.8 -0.9,2 -1.5,2.8 -0.3,0.4 -0.7,0.8 -0.9,1.1 -0.9,1.1 -1.1,1.2 -2.1,2.3 -0.9,1 -1,1.8 -1.7,1.9 -0.6,0 -1.1,-1.3 -1.7,-1.3 -0.5,0 -0.6,0.9 -1.3,0.8 -0.8,-0.2 -1.7,-1.8 -2.8,-3.2 -1.2,-1.5 -2.8,-2.8 -3.6,-3.8 -0.3,-0.4 -0.4,-1.1 -0.6,-1.3 -1,-1.2 -2.3,-2.3 -3.4,-3.4 -1.1,-1.2 -2,-2.6 -3,-3.6 -0.3,-0.3 -0.8,-0.1 -1.1,-0.4 -0.8,-0.6 -1.3,-1.7 -2.3,-2.4 -2.5,-2 -4.7,-4.3 -7,-6.6 -4.6,-4.7 -8.1,-8.4 -12.1,-13 -1.1,-1.2 -2.5,-1.6 -2.8,-2.1 -0.3,-0.4 -0.9,-3 -0.9,-2.3 0,-0.4 0.3,-1.4 1.3,-1.6 z m 60.7,5.9 c -0.4,-1.1 -2.3,-2.1 -1.1,-3.6 -3.8,0.4 -0.8,3.2 1.1,3.6 z m -23,4.2 c -0.2,-0.2 -0.8,0.1 -0.9,0 -0.1,-0.1 -0.1,-0.7 -0.4,-0.9 -0.2,-0.2 -0.6,0 -0.9,-0.2 -1,-0.5 -1.9,-2.1 -2.8,-2.8 -1.3,-1 -2.5,-0.9 -2.8,-1.9 -0.4,-1.2 0.7,-0.7 -0.2,-1.1 -0.2,-0.1 -2,0.5 -2.3,0.2 5.4,4.5 11.1,8.8 16.6,13.2 0.1,-0.9 -1,-0.7 -0.6,-1.5 -0.3,-0.2 -0.4,0.4 -0.6,0.4 0,0 -1.8,-1.4 -2.3,-2.3 -0.6,-1 -1.4,-1 -1.3,-2.1 -0.7,-0.3 -0.1,0.6 -0.6,0.6 -0.8,0 -0.4,-1.1 -0.9,-1.6 z m -0.2,-3.8 c -0.5,-0.4 -0.6,-1.3 -1.1,-1.7 -1.3,-1.1 -2.7,-1.6 -4.5,-1.3 4.2,3.5 8.6,6.7 13.2,9.8 0.1,-1.3 -1.6,-1.5 -2.1,-2.3 -0.4,-0.7 0.5,-1.8 -0.8,-1.9 -0.1,0.4 0.2,1.2 -0.2,1.3 -1.2,-0.5 -1.2,-2.6 -2.6,-2.3 0.3,-1.3 -1.1,-0.9 -1.9,-1.6 z m 2.8,13.4 c -0.3,-0.3 -0.3,-1 -0.6,-1.3 -1.3,-1.6 -3.6,-2.9 -5.3,-4.5 -0.5,-0.5 -0.8,-1.3 -1.3,-1.7 -0.3,-0.2 -0.8,-0.2 -1.1,-0.4 -0.7,-0.4 -1.1,-1.4 -1.9,-2.1 -1.4,-1.2 -3.3,-2.2 -4.7,-3.2 -1.8,-1.3 -3.5,-3.8 -5.5,-2.8 8,5.8 15,12.5 22.6,18.6 0.2,-1.4 -1.4,-1.7 -2.2,-2.6 z M 27.3,118.5 c 0,-0.9 0.7,-0.9 1.1,-1.3 -0.5,-0.3 -2.2,-0.3 -2.6,0 0.6,0.3 0.9,0.9 1.5,1.3 z m 23.2,-1 c 1.6,0.3 3.2,0.6 4.7,0.9 -0.3,-1.9 -3.7,-1.3 -4.7,-0.9 z M 6.6,117.3 c 0.6,1 1.9,2.2 2.8,2.3 -1.1,-1.5 -0.4,-3 -2.8,-2.3 z m 24.3,9.8 c -1.1,-1.6 -3.4,-2.6 -5.3,-4.1 -0.8,-0.6 -1.3,-1.7 -2.1,-2.3 -1.1,-0.8 -2.5,-1 -3.4,-1.7 -1.1,-0.8 -1.7,-2.7 -3.4,-1.5 4.6,3.4 9.3,6.6 14.2,9.6 z m 10.7,-8.3 c 1.1,0.8 2.4,3.2 3.6,2.3 -1.2,0.1 -1.2,-1.4 -1.9,-2.1 -0.3,-0.3 -1,-0.5 -1.3,-0.9 0,0 -0.5,-1 -0.4,-0.9 -0.6,-0.3 -1.4,0.2 -2.1,0 0.3,1 1.3,1 2.1,1.6 z M 29.2,129.9 C 29,129.7 29,129.2 28.8,129 c -0.3,-0.3 -2.3,-2 -2.5,-2.1 -0.2,-0.1 -0.6,0.1 -0.8,0 -0.6,-0.5 -0.8,-1.5 -1.3,-1.9 -0.4,-0.3 -0.7,0.2 -1.1,0 -0.4,-0.2 -0.7,-1.3 -1.1,-1.7 -0.8,-0.6 -2,-0.7 -2.5,-1.1 -0.2,-0.2 -0.2,-0.7 -0.4,-0.9 -1,-1.3 -5.5,-3.8 -7.3,-3.8 2,2.3 5.4,4.2 7.7,6 3.5,2.7 7.1,5.7 10.4,8.7 3.3,3.1 6.3,6.4 10,8.8 -0.4,-2.1 -3.1,-3.3 -4,-4.5 -0.6,-0.9 -0.4,-2.1 -1.7,-1.5 0.2,-1.5 -1,-1.1 -1.7,-1.9 -0.2,-0.2 0.1,-0.7 0,-0.9 -0.2,-0.5 -1.5,-1.4 -1.3,-1.3 -0.1,0 -0.6,0.9 -0.8,0.4 0.3,-1.1 -0.6,-0.8 -1.2,-1.4 z m 34.7,-8.8 c 1.8,0.8 1,-3.2 -0.9,-2.3 0.7,0.4 0.3,2 0.9,2.3 z m -17,0.9 c 0.4,0.7 0.4,0.4 0.9,0.9 0.3,0.3 0.3,1 0.4,1.1 0.4,0.4 1.1,0.2 1.5,0.6 0.4,0.4 0.5,1.2 0.9,1.7 0.1,0.1 0.8,-0.1 0.9,0 0.1,0.1 0.1,0.7 0.4,0.9 0.2,0.2 0.7,0.2 0.9,0.4 1.2,1.2 2.2,3.3 4,3 -3.6,-4.4 -7.9,-8.2 -12.4,-11.7 0.5,1.2 1.9,2 2.5,3.1 z m 14.9,1.7 c 1.8,-0.3 -0.9,-3.8 -2.1,-3.2 -1.5,0.8 1.5,3.3 2.1,3.2 z m -3.2,4.7 c 0.7,-0.9 -0.6,-1 -1.1,-1.5 -1.3,-1.3 -2.5,-3.3 -4.3,-3.8 1.6,1.9 3.3,3.8 5.4,5.3 z m 1.5,-2.3 c 0,-1 -1.5,-2 -2.6,-2.4 0.4,1.3 1.6,1.7 2.6,2.4 z m -10.2,7 c 0.6,0.7 0.9,1.7 1.1,1.9 1,0.8 2.3,0.3 2.3,-0.6 0,-0.6 -1.1,-0.9 -1.7,-1.3 -1.9,-1.5 -3.8,-3.8 -6.2,-4.7 1,1.3 3.4,3.4 4.5,4.7 z m -1.1,6.1 c 0.5,2.4 2.9,0.1 2.8,-0.9 -0.1,-0.9 -4.6,-3.8 -4.5,-3.8 0.6,0.8 6,5.5 1.7,4.7 z m -6.2,-1.6 c -1.3,-1.1 -2.4,-2.3 -4.1,-3 1.2,1.1 2.5,3 4.1,3 z m 4.3,6.6 c 0,-1.5 -1.3,-1.6 -2.3,-2.1 -1.3,-0.7 -3.1,-2.7 -4.3,-3.6 -1.6,-1.1 -2.6,-3.4 -3.8,-2.8 1.3,1.7 3.6,2.7 4.5,4.7 0.4,0.8 -0.2,1.7 0.8,2.3 0.1,-0.3 -0.2,-1.1 0.2,-1.1 0.7,0.1 0.7,1.4 1.3,0.9 0.5,0 -0.2,-1.2 0.6,-0.9 0.7,1.2 1.7,2.1 3,2.6 z M 38.5,142 c -2,-1.1 -3.7,-3.5 -5.7,-4.1 1.7,1.4 3.6,3.7 5.7,4.1 z"
     fill="#ffd035"
     id="path172"
     style="fill:#f06000;fill-opacity:1" />
</svg>
